<svg width="60" height="60" viewBox="0 0 60 60" fill="none" xmlns="http://www.w3.org/2000/svg">
<path d="M35.0784 6.41251C35.6039 6.30268 36.1223 6.16149 36.6309 5.9897C36.016 5.35332 35.3237 4.79648 34.5703 4.3322C34.7616 4.9847 34.9303 5.6822 35.0784 6.41251ZM27.6506 4.13063C26.8388 4.5722 26.0569 5.1722 25.3153 5.91657C25.8291 6.10313 26.4206 6.27282 27.0834 6.41157C27.2355 5.64252 27.4247 4.88131 27.6506 4.13063ZM27.9441 18.7547C28.8853 18.9019 29.9363 18.9919 31.0819 18.9919C32.2275 18.9919 33.2775 18.9019 34.2188 18.7547C34.2174 17.2972 34.1808 15.8399 34.1091 14.3841C32.0977 14.6235 30.0651 14.6235 28.0538 14.3841C27.9811 15.8398 27.9445 17.2971 27.9441 18.7547ZM22.1634 10.3866C22.8281 11.0625 24.2728 11.7609 26.3231 12.2081C26.4237 10.8885 26.5701 9.57267 26.7619 8.26314C25.7531 8.05876 24.8222 7.77845 24.0169 7.42501C23.3173 8.35859 22.6973 9.34926 22.1634 10.3866ZM33.5428 26.3484C33.7125 25.7625 33.8822 25.1738 34.0594 24.6141C34.1306 23.3691 34.1803 22.0491 34.2028 20.6513C33.1683 20.7938 32.1252 20.8655 31.0809 20.8659C30.0253 20.8659 28.9697 20.7909 27.9581 20.6513C27.9891 22.6069 28.0734 24.4116 28.1972 26.0681L28.2638 26.2997C29.1225 26.4188 30.0619 26.4909 31.08 26.4909C31.9031 26.4928 32.7255 26.4452 33.5428 26.3484ZM31.0603 38.5341C31.4901 35.0796 32.1427 31.6565 33.0141 28.2863C32.3766 28.3388 31.7288 28.3669 31.0809 28.3669C30.3188 28.3669 29.5575 28.3256 28.8113 28.2525C29.6044 31.2703 30.2606 34.5909 30.7341 38.2219C30.8494 38.3747 30.9591 38.4872 31.0603 38.5341ZM37.9322 7.52064C37.1775 7.83001 36.3197 8.07751 35.4 8.26314C35.5918 9.57267 35.7381 10.8885 35.8388 12.2081C37.7091 11.8003 39.075 11.1834 39.8053 10.5656C39.2675 9.49984 38.641 8.48124 37.9322 7.52064ZM28.1709 12.5175C29.0663 12.6253 30.0384 12.6881 31.0819 12.6881C32.0544 12.6894 33.0262 12.6324 33.9919 12.5175C33.8925 11.1884 33.7415 9.86363 33.5391 8.54626C32.7338 8.63157 31.9078 8.67939 31.0819 8.67939C30.2559 8.67939 29.43 8.63251 28.6238 8.54626C28.4213 9.86363 28.2703 11.1884 28.1709 12.5175ZM33.2081 6.6947C32.8988 5.22751 32.5537 4.15126 32.2228 3.38438C31.8002 3.29724 31.3699 3.25295 30.9384 3.2522C30.6084 3.2522 30.2822 3.28595 29.9588 3.33657C29.6222 4.10532 29.2688 5.19845 28.9528 6.6947C30.3675 6.84036 31.7934 6.84036 33.2081 6.6947ZM26.0691 18.345C26.0796 16.9239 26.1228 15.5032 26.1984 14.0841C24.8475 13.8084 23.6072 13.4138 22.5872 12.9075C23.564 14.5833 24.4512 16.3098 25.245 18.0797C25.4981 18.1734 25.7766 18.2616 26.0691 18.345ZM36.4678 18.2325C37.224 16.5173 38.0696 14.8428 39.0009 13.2159L39.0403 13.1503C38.1319 13.5413 37.0875 13.8553 35.9625 14.085C36.0525 15.7509 36.0844 17.2425 36.0919 18.3459C36.2213 18.3084 36.3469 18.2709 36.4678 18.2325ZM21.2372 12.36C21.0919 12.1247 20.9466 11.8894 20.8013 11.6625C20.564 11.2936 20.3218 10.928 20.0747 10.5656C17.8481 7.31064 15.7153 5.0972 14.2284 3.7622C16.5656 9.00845 17.6447 19.5 18.1275 26.6869C18.4022 30.78 18.4838 33.8053 18.4931 34.17C18.8653 39.9609 19.8534 44.2313 21.1191 47.3916C21.4659 48.2569 21.8316 49.0406 22.2131 49.7456C22.2338 49.7841 22.2534 49.8253 22.2741 49.8628C22.2872 49.8881 22.3013 49.9116 22.3153 49.9359C25.2816 55.2853 29.0438 56.1572 30.4284 56.2913C30.2569 52.3978 30.2738 48.7509 30.4556 45.3572C30.3581 43.5891 30.2111 41.824 30.015 40.0641C29.5247 35.6063 28.7616 31.6369 27.8316 28.1325C27.6541 27.4631 27.4662 26.7964 27.2681 26.1328C26.9234 24.9602 26.5463 23.7972 26.1375 22.6453C25.8202 21.7657 25.4823 20.8935 25.1241 20.0297C24.7734 19.1764 24.402 18.3318 24.0103 17.4966C23.4151 16.2199 22.7684 14.9679 22.0716 13.7438C21.7931 13.2609 21.5147 12.81 21.2372 12.36ZM33.5756 29.9325C33.0958 31.9391 32.6952 33.9638 32.3747 36.0019C32.1501 37.4185 31.961 38.8405 31.8075 40.2666C31.6294 41.9184 31.4897 43.6341 31.3941 45.4153C31.2032 49.0406 31.191 52.6732 31.3575 56.2997L31.4231 56.2931C33.6581 56.0766 42.0881 53.9409 43.3584 34.1522C43.3669 33.7884 43.4512 30.6684 43.7372 26.4684C44.2256 19.3069 45.3028 8.9972 47.6081 3.79407C46.2291 5.04845 44.2987 7.06126 42.2466 9.97126C41.7385 10.6922 41.2512 11.4275 40.785 12.1763C40.7409 12.2475 40.6959 12.315 40.6519 12.3881C39.5991 14.1023 38.6451 15.8752 37.7944 17.6981C37.4325 18.4706 37.0791 19.2825 36.7313 20.1225C35.6522 22.7459 34.7456 25.4369 34.0172 28.1784C33.8644 28.7503 33.7181 29.3381 33.5756 29.9325Z" fill="url(#paint0_linear_633_2)"/>
<defs>
<linearGradient id="paint0_linear_633_2" x1="30.9183" y1="3.2522" x2="30.9183" y2="56.2997" gradientUnits="userSpaceOnUse">
<stop stop-color="white"/>
<stop offset="1" stop-color="#999999"/>
</linearGradient>
</defs>
</svg>
